PathFileType	4	(X/Y/Z)	C:\Users\dbl\Desktop\20210112\20210112\bx_n_5_1801.trc
DataRate	CameraRate	NumFrames	NumMarkers	Units	OrigDataRate	OrigDataStartFrame	OrigNumFrames
50.00	50.00	       4	43	mm	50.00	116	       460
Frame#	Time	Top.Head			R.Acromium			L.Acromium			Sternum			R.ASIS			L.ASIS			V.Sacral			R.Thigh.Upper			R.Thigh.Front			R.Thigh.Rear			R.Knee.Lat			R.Knee.Med			R.Shank.Upper			R.Shank.Front			R.Shank.Rear			R.Ankle.Lat			R.Midfoot.Lat			R.Toe.Lat			R.Toe.Tip			R.Toe.Med			R.Ankle.Med			R.Midfoot.Sup			R.Heel			L.Thigh.Upper			L.Thigh.Front			L.Thigh.Rear			L.Knee.Lat			L.Knee.Med			L.Shank.Upper			L.Shank.Front			L.Shank.Rear			L.Ankle.Lat			L.Midfoot.Lat			L.Toe.Lat			L.Toe.Tip			L.Toe.Med			L.Ankle.Med			L.Midfoot.Sup			L.Heel			origin1 front left			origin2 front right			origin 3 back right			origin 4 back leftt			
		X1	Y1	Z1	X2	Y2	Z2	X3	Y3	Z3	X4	Y4	Z4	X5	Y5	Z5	X6	Y6	Z6	X7	Y7	Z7	X8	Y8	Z8	X9	Y9	Z9	X10	Y10	Z10	X11	Y11	Z11	X12	Y12	Z12	X13	Y13	Z13	X14	Y14	Z14	X15	Y15	Z15	X16	Y16	Z16	X17	Y17	Z17	X18	Y18	Z18	X19	Y19	Z19	X20	Y20	Z20	X21	Y21	Z21	X22	Y22	Z22	X23	Y23	Z23	X24	Y24	Z24	X25	Y25	Z25	X26	Y26	Z26	X27	Y27	Z27	X28	Y28	Z28	X29	Y29	Z29	X30	Y30	Z30	X31	Y31	Z31	X32	Y32	Z32	X33	Y33	Z33	X34	Y34	Z34	X35	Y35	Z35	X36	Y36	Z36	X37	Y37	Z37	X38	Y38	Z38	X39	Y39	Z39	X40	Y40	Z40	X41	Y41	Z41	X42	Y42	Z42	X43	Y43	Z43	

116	2.300	-413.56750	105.31814	1398.73291	-515.12585	-76.45168	1111.60693	-528.55743	268.26587	1105.33411	-591.07520	84.80385	915.52478	-814.34644	-15.45235	825.30273	-798.53003	218.10336	799.97046	-1008.51813	87.65057	817.20465	-809.33484	-97.29967	697.30884	-697.91522	-41.19320	734.41742	-713.86035	-94.40697	631.83307	-591.06458	-74.14899	554.35992	-548.49176	37.45292	544.02686	-577.55884	-72.27271	517.92627	-529.64789	-20.63867	468.36728	-642.19257	-70.25882	457.65814	-746.77393	-15.87967	207.04576	-649.66888	-68.18577	161.89198	-608.16315	-74.78739	159.70979	-547.84595	-30.14673	162.70087	-596.26367	25.18813	167.35739	-703.10071	71.82917	211.29457	-670.14301	53.28621	155.79579	-787.26208	46.33746	179.23080	-810.92120	282.66071	683.28296	-675.99310	225.34508	728.23615	-687.37000	285.24805	623.93542	-599.82025	264.54602	560.33148	-525.86365	159.19589	538.70691	-568.30347	266.79630	524.57196	-516.91187	223.37535	480.35516	-626.20984	268.68301	469.55817	-757.23975	223.38390	207.94762	-660.44183	296.71133	158.60516	-624.83899	305.19827	158.41983	-554.32782	257.03799	162.30997	-590.46570	217.87018	172.72488	-699.82104	148.88593	206.96606	-673.26556	171.79948	152.52036	-789.69397	171.21062	189.49199	-528.39191	304.49100	146.56577	-518.01526	-72.42425	142.78549	-875.76971	-78.64407	141.06889	-882.65045	296.12494	144.68356	
117	2.320	-417.77472	104.06084	1413.56494	-517.35626	-77.75002	1125.30945	-530.68970	267.36743	1119.40027	-590.98486	83.91837	928.84985	-811.87329	-16.32770	831.68420	-797.46442	216.95032	809.93701	-1007.00488	86.04883	826.69666	-808.14050	-98.03471	703.65759	-695.79321	-42.68565	738.61292	-714.06470	-94.84033	635.94928	-592.89130	-74.32502	556.10455	-550.09937	37.30796	545.18903	-579.61646	-72.29692	519.34564	-532.29974	-20.71658	469.09155	-643.98083	-70.34825	458.52664	-747.06012	-16.08038	206.95024	-649.73798	-68.38182	161.73134	-608.14600	-74.90500	159.22714	-547.87933	-30.13118	162.68028	-596.29291	25.18206	167.43425	-703.18323	71.54683	211.39201	-670.25574	53.15236	155.89137	-787.31995	46.20602	179.18127	-810.78149	281.41873	690.63861	-674.76563	225.10078	732.73584	-688.60565	284.32751	628.20203	-602.25598	263.92218	562.99994	-527.96350	159.08891	540.11884	-571.01123	266.42319	526.55994	-519.33331	223.19888	481.81989	-628.55402	268.23383	470.87631	-757.51868	223.52023	207.89746	-660.44171	296.98297	158.60210	-624.88080	305.35413	158.45403	-554.44177	256.99887	162.39690	-590.58484	217.99197	172.77014	-700.03430	149.00742	207.11058	-673.32007	171.82024	152.67502	-789.90515	171.31288	189.47343	-528.36566	304.45114	146.54643	-517.99786	-72.47841	142.88733	-875.80414	-78.63456	141.09338	-882.66895	296.12338	144.70091	
118	2.340	-422.04910	102.92576	1428.55688	-519.58130	-78.96257	1139.18774	-532.87964	266.51099	1133.62097	-590.75232	83.03999	942.37653	-809.34436	-17.21775	838.24652	-796.34045	215.90865	820.10034	-1005.37891	84.49941	836.26221	-806.96100	-98.76727	710.17346	-693.74536	-44.11790	742.87653	-714.37317	-95.27763	640.17761	-594.90759	-74.50269	557.94183	-551.87817	37.14735	546.42224	-581.84448	-72.33455	520.83008	-535.19189	-20.78963	469.87552	-645.93420	-70.46806	459.46576	-747.36658	-16.28843	206.82249	-649.80383	-68.58368	161.61115	-608.13019	-75.07561	158.83833	-547.91754	-30.14567	162.70013	-596.32306	25.17207	167.51782	-703.27966	71.21503	211.47025	-670.38635	53.05217	155.99757	-787.33844	46.07611	179.16615	-810.62531	280.24628	698.16248	-673.61218	224.82567	737.30035	-689.83771	283.37549	632.68384	-604.90363	263.32239	565.79297	-530.23871	158.98654	541.62579	-573.91284	265.96735	528.64948	-521.93738	222.89023	483.52264	-631.11414	267.71515	472.27667	-757.81622	223.71056	207.85840	-660.44531	297.24640	158.61444	-624.91248	305.53091	158.48967	-554.55865	256.95035	162.48172	-590.71643	218.12387	172.83142	-700.24127	149.12494	207.22835	-673.37683	171.84050	152.82634	-790.10840	171.43896	189.46031	-528.33606	304.38535	146.50159	-517.98773	-72.53147	143.00180	-875.85779	-78.62200	141.12764	-882.67664	296.12967	144.71681	
119	2.360	-426.40784	101.88926	1443.67334	-521.80261	-80.11413	1153.20886	-535.11987	265.71130	1147.95825	-590.41522	82.20147	956.04614	-806.76062	-18.12179	844.98914	-795.13715	214.99159	830.42133	-1003.63116	82.97401	845.87848	-805.79608	-99.50376	716.82861	-691.78839	-45.49891	747.18365	-714.79059	-95.73797	644.50568	-597.10730	-74.67960	559.85083	-553.82062	36.95795	547.71570	-584.24860	-72.42055	522.35468	-538.18262	-20.92135	470.79349	-648.06659	-70.63139	460.45767	-747.67365	-16.50780	206.69188	-649.86603	-68.78223	161.50262	-608.12213	-75.29195	158.54253	-547.95282	-30.18392	162.74529	-596.35815	25.14194	167.60899	-703.41876	70.85057	211.53401	-670.50336	52.98337	156.12157	-787.33057	45.93977	179.17883	-810.44629	279.13904	705.83130	-672.53058	224.47784	741.90216	-691.05621	282.38449	637.37531	-607.76538	262.67310	568.67047	-532.65247	158.88658	543.20636	-576.99133	265.38104	530.78271	-524.76733	222.48807	485.40057	-633.86975	267.10907	473.74182	-758.12793	223.92323	207.82428	-660.46558	297.46631	158.62993	-624.93018	305.71005	158.52144	-554.67645	256.89206	162.55769	-590.86121	218.26759	172.92061	-700.44861	149.24219	207.30212	-673.44128	171.89128	152.96954	-790.26166	171.57462	189.41789	-528.31793	304.29993	146.43700	-517.98969	-72.57786	143.11229	-875.91583	-78.61226	141.16435	-882.67084	296.13968	144.72252	
